<svg width="22" height="16" viewBox="0 0 22 16" fill="none" xmlns="http://www.w3.org/2000/svg">
    <path d="M16 0C17.5913 0 19.1174 0.632141 20.2426 1.75736C21.3679 2.88258 22 4.4087 22 6V10C22 11.5913 21.3679 13.1174 20.2426 14.2426C19.1174 15.3679 17.5913 16 16 16H6C4.4087 16 2.88258 15.3679 1.75736 14.2426C0.632141 13.1174 0 11.5913 0 10V6C0 4.4087 0.632141 2.88258 1.75736 1.75736C2.88258 0.632141 4.4087 0 6 0H16ZM9 5H7V7H5V9H6.999L7 11H9L8.999 9H11V7H9V5ZM17 9H15V11H17V9ZM15 5H13V7H15V5Z" fill="#607B96" />
</svg>